<mxfile host="app.diagrams.net" agent="Mozilla/5.0 (Windows NT 10.0; Win64; x64) AppleWebKit/537.36 (KHTML, like Gecko) Chrome/138.0.0.0 Safari/537.36" version="28.0.7">
  <diagram name="Page-1" id="gamRS6MLA4fs2B-uqD5Q">
    <mxGraphModel grid="1" page="1" gridSize="10" guides="1" tooltips="1" connect="1" arrows="1" fold="1" pageScale="1" pageWidth="850" pageHeight="1100" math="0" shadow="0">
      <root>
        <mxCell id="0" />
        <mxCell id="1" parent="0" />
        <mxCell id="qD9gXsYjsShy9WRek7qx-5" style="edgeStyle=orthogonalEdgeStyle;rounded=0;orthogonalLoop=1;jettySize=auto;html=1;exitX=0.5;exitY=1;exitDx=0;exitDy=0;entryX=0.5;entryY=0;entryDx=0;entryDy=0;" edge="1" parent="1" source="sVo8eWBov2D_V9g_eI1e-1" target="qD9gXsYjsShy9WRek7qx-1">
          <mxGeometry relative="1" as="geometry" />
        </mxCell>
        <mxCell id="sVo8eWBov2D_V9g_eI1e-1" value="Inicio" style="rounded=1;whiteSpace=wrap;html=1;" vertex="1" parent="1">
          <mxGeometry x="420" y="40" width="80" height="30" as="geometry" />
        </mxCell>
        <mxCell id="sVo8eWBov2D_V9g_eI1e-14" value="&lt;font style=&quot;font-size: 20px;&quot;&gt;&lt;b&gt;Operaciones aritméticas&lt;/b&gt;&lt;/font&gt;" style="text;html=1;align=center;verticalAlign=middle;whiteSpace=wrap;rounded=0;" vertex="1" parent="1">
          <mxGeometry x="40" y="20" width="340" height="30" as="geometry" />
        </mxCell>
        <mxCell id="I5g4T-FfKX0s-sWPSXJS-8" style="edgeStyle=orthogonalEdgeStyle;rounded=0;orthogonalLoop=1;jettySize=auto;html=1;exitX=0.5;exitY=1;exitDx=0;exitDy=0;entryX=0.5;entryY=0;entryDx=0;entryDy=0;" edge="1" parent="1" source="qD9gXsYjsShy9WRek7qx-1" target="c4Z_fxULF_qdtMcInaCq-2">
          <mxGeometry relative="1" as="geometry">
            <mxPoint x="459" y="162" as="targetPoint" />
          </mxGeometry>
        </mxCell>
        <mxCell id="qD9gXsYjsShy9WRek7qx-1" value="Leer primer número" style="rounded=0;whiteSpace=wrap;html=1;" vertex="1" parent="1">
          <mxGeometry x="384.5" y="107" width="151" height="40" as="geometry" />
        </mxCell>
        <mxCell id="fhB60b2QltupWCeUgBXA-5" value="Fin" style="rounded=1;whiteSpace=wrap;html=1;" vertex="1" parent="1">
          <mxGeometry x="420" y="538" width="80" height="30" as="geometry" />
        </mxCell>
        <mxCell id="c4Z_fxULF_qdtMcInaCq-4" style="edgeStyle=orthogonalEdgeStyle;rounded=0;orthogonalLoop=1;jettySize=auto;html=1;exitX=0.5;exitY=1;exitDx=0;exitDy=0;entryX=0.5;entryY=0;entryDx=0;entryDy=0;" edge="1" parent="1" source="c4Z_fxULF_qdtMcInaCq-2" target="c4Z_fxULF_qdtMcInaCq-7">
          <mxGeometry relative="1" as="geometry">
            <mxPoint x="459.5" y="270" as="targetPoint" />
          </mxGeometry>
        </mxCell>
        <mxCell id="c4Z_fxULF_qdtMcInaCq-2" value="Leer segundo número" style="rounded=0;whiteSpace=wrap;html=1;" vertex="1" parent="1">
          <mxGeometry x="385" y="190" width="150.5" height="40" as="geometry" />
        </mxCell>
        <mxCell id="SRy28a0ryzNaFdhRhniv-2" style="edgeStyle=orthogonalEdgeStyle;rounded=0;orthogonalLoop=1;jettySize=auto;html=1;exitX=0.5;exitY=1;exitDx=0;exitDy=0;entryX=0.5;entryY=0;entryDx=0;entryDy=0;" edge="1" parent="1" source="c4Z_fxULF_qdtMcInaCq-6" target="fhB60b2QltupWCeUgBXA-5">
          <mxGeometry relative="1" as="geometry" />
        </mxCell>
        <mxCell id="c4Z_fxULF_qdtMcInaCq-6" value="Presentar por pantalla:&lt;div&gt;- suma.&lt;/div&gt;&lt;div&gt;- resta.&lt;/div&gt;&lt;div&gt;- multiplicación.&lt;/div&gt;&lt;div&gt;- división&lt;/div&gt;" style="rounded=0;whiteSpace=wrap;html=1;" vertex="1" parent="1">
          <mxGeometry x="373.5" y="406" width="173" height="96" as="geometry" />
        </mxCell>
        <mxCell id="c4Z_fxULF_qdtMcInaCq-9" style="edgeStyle=orthogonalEdgeStyle;rounded=0;orthogonalLoop=1;jettySize=auto;html=1;exitX=0.5;exitY=1;exitDx=0;exitDy=0;entryX=0.5;entryY=0;entryDx=0;entryDy=0;" edge="1" parent="1" source="c4Z_fxULF_qdtMcInaCq-7" target="c4Z_fxULF_qdtMcInaCq-6">
          <mxGeometry relative="1" as="geometry" />
        </mxCell>
        <mxCell id="c4Z_fxULF_qdtMcInaCq-7" value="&lt;div&gt;Calcular operaciones:&lt;/div&gt;suma = primer número + segundo número&lt;div&gt;resta= primer número - segundo número&lt;/div&gt;&lt;div&gt;multiplicación= primer número x segundo número&lt;/div&gt;&lt;div&gt;división= primer número / segundo número&lt;/div&gt;" style="rounded=0;whiteSpace=wrap;html=1;" vertex="1" parent="1">
          <mxGeometry x="305.25" y="271" width="310" height="100" as="geometry" />
        </mxCell>
      </root>
    </mxGraphModel>
  </diagram>
</mxfile>
